<svg xmlns="http://www.w3.org/2000/svg" viewBox="0 0 213 109.9"><defs><style>.cls-1{fill:#5e94c0;}.cls-2{fill:#aaa;}</style></defs><title>Asset 1</title><g id="Layer_2" data-name="Layer 2"><g id="Layer_1-2" data-name="Layer 1"><polygon class="cls-1" points="84.2 20.3 121.4 20.3 121.4 12.8 84.2 12.8 84.2 0 76.9 0 76.9 61.1 84.2 61.1 84.2 48.3 121.2 48.3 121.2 40.6 84.2 40.6 84.2 20.3"/><polygon class="cls-2" points="127.8 0 127.8 26.7 90.6 26.7 90.6 34.2 127.8 34.2 127.8 61.1 135.1 61.1 135.1 0 127.8 0"/><path class="cls-1" d="M14.3,95.9c0-3.8-.8-5.6-4.3-5.6-3.9,0-6.4,2.4-6.4,6.1v12.7H0V82.5H3.6v8.1A7.33,7.33,0,0,1,10.3,87c3.2,0,5.5,1,6.7,2.9.9,1.4.9,3.1.9,5.2V109H14.3Z"/><path class="cls-1" d="M26.9,100.8c0,3.9.9,5.6,4.4,5.6,4.1,0,6.3-2.5,6.3-7.2V87.6h3.6v21.5H37.7v-3.2c-1.5,2.5-3.9,3.7-7.1,3.7-3,0-5.3-1.1-6.5-2.9-.9-1.4-.9-3.1-.9-5.2V87.6h3.7Z"/><path class="cls-1" d="M72.9,95.9c0-3.8-.7-5.6-3.9-5.6-3.5,0-5.5,2.2-5.5,6.2v12.7H59.8V96c0-3.8-.7-5.6-3.9-5.6-3.4,0-5.5,2.3-5.5,6.2v12.7H46.8V87.8h3.5v3A7.46,7.46,0,0,1,57,87.2a6.35,6.35,0,0,1,5.9,3.4,8.21,8.21,0,0,1,6.9-3.4c2.8,0,4.9,1.1,6,2.9.8,1.5.9,3.3.9,5.6v13.5H73.1V95.9Z"/><path class="cls-1" d="M118.6,95.9c0-3.8-.9-5.6-4.3-5.6-4,0-6.4,2.3-6.4,6.6v12.2h-3.6V87.6h3.5v3.1a7.67,7.67,0,0,1,6.9-3.7c3.2,0,5.5,1,6.7,2.9.9,1.4.9,3.1.9,5.2V109h-3.7Z"/><path class="cls-2" d="M127.8,82.5h3.5v8.1a8,8,0,0,1,6.9-3.7c5.6,0,9.4,4.4,9.4,11.5s-3.8,11.3-9.4,11.3a8,8,0,0,1-7-3.4V109h-3.5V82.5Zm9.7,24.1c3.9,0,6.4-3,6.4-7.9,0-5.5-2.4-8.5-6.4-8.5-4.2,0-6.4,2.7-6.4,8.1S133.5,106.6,137.5,106.6Z"/><path class="cls-2" d="M168.7,93.6c0-4.6-2.6-6.7-8.4-6.7-4.5,0-7.5,1.9-8.3,5.1l3.3,1c.4-1.9,2.1-2.9,4.9-2.9q4.8,0,4.8,3.3c0,1.4,0,1.9-1,2.3s-2.9.5-5.9.8c-4.9.6-7.4,2.8-7.4,6.7s2.5,6.5,7,6.5a10.24,10.24,0,0,0,7.6-3.5v2.9h3.4Zm-3.7,7.8c0,3-2.7,5.2-6.7,5.2-2.5,0-3.9-1.2-3.9-3.3s1.1-3.2,3.7-3.6,4.9-.5,6.8-1.5v3.2Z"/><path class="cls-2" d="M184,96.6l-3.5-.8c-2.3-.5-3.4-1.1-3.4-2.7,0-1.9,1.5-3,4.4-3,2.4,0,4.1.9,4.7,2.6l3.6-.2c-.6-3.3-3.7-5.4-8.3-5.4-5.1,0-8.1,2.5-8.1,6.2s1.8,5,6.1,6l4,1c2.2.5,3.3,1.1,3.3,2.9,0,2.1-1.8,3.4-5,3.4-2.9,0-4.7-1.2-5.3-3.4l-3.6.2c.6,4.1,3.5,6.4,8.5,6.4,5.8,0,9-2.7,9-7.1C190.5,99,188.4,97.6,184,96.6Z"/><path class="cls-2" d="M209.2,102.4a5.17,5.17,0,0,1-5.5,4.2c-3.8,0-6.1-2.5-6.2-7.1H213V97.9c0-7-3.6-10.9-9.7-10.9-5.9,0-9.7,4.2-9.7,11.7,0,7,3.7,11.2,9.7,11.2,4.7,0,8.1-2.5,9.2-6.6Zm-5.7-12.2c3.7,0,5.8,2.2,5.8,6.3H197.5C197.8,92.3,199.9,90.2,203.5,90.2Z"/><path class="cls-1" d="M98.7,93.6c0-4.6-2.6-6.7-8.4-6.7-4.5,0-7.5,1.9-8.3,5.1l3.3,1c.4-1.9,2.1-2.9,4.9-2.9q4.8,0,4.8,3.3c0,1.4,0,1.9-1,2.3s-2.9.5-5.9.8c-4.9.6-7.4,2.8-7.4,6.7s2.5,6.5,7,6.5a10.24,10.24,0,0,0,7.6-3.5v2.9h3.4ZM95,101.4c0,3-2.7,5.2-6.7,5.2-2.5,0-3.9-1.2-3.9-3.3s1.1-3.2,3.7-3.6,4.9-.5,6.8-1.5v3.2Z"/></g></g></svg>