<?xml version="1.0" encoding="utf-8"?>
<!-- Generator: Adobe Illustrator 22.0.1, SVG Export Plug-In . SVG Version: 6.00 Build 0)  -->
<svg version="1.1" id="Layer_1" xmlns="http://www.w3.org/2000/svg" xmlns:xlink="http://www.w3.org/1999/xlink" x="0px" y="0px"
	 viewBox="0 0 538 393.3" style="enable-background:new 0 0 538 393.3;" xml:space="preserve">
<style type="text/css">
	.st0{fill:#5E94C0;}
	.st1{fill:#AAAAAA;}
</style>
<g>
	<g>
		<polygon class="st0" points="244.9,153.8 282.1,153.8 282.1,146.3 244.9,146.3 244.9,133.5 237.6,133.5 237.6,194.6 244.9,194.6 
			244.9,181.8 281.9,181.8 281.9,174.1 244.9,174.1 		"/>
		<polygon class="st1" points="288.5,133.5 288.5,160.2 251.3,160.2 251.3,167.7 288.5,167.7 288.5,194.6 295.8,194.6 295.8,133.5 
					"/>
	</g>
	<g>
		<path class="st0" d="M175,229.4c0-3.8-0.8-5.6-4.3-5.6c-3.9,0-6.4,2.4-6.4,6.1v12.7h-3.6V216h3.6v8.1c1.3-2.3,3.7-3.6,6.7-3.6
			c3.2,0,5.5,1,6.7,2.9c0.9,1.4,0.9,3.1,0.9,5.2c0,0.3,0,0.7,0,1v12.9H175V229.4z"/>
		<path class="st0" d="M187.6,234.3c0,3.9,0.9,5.6,4.4,5.6c4.1,0,6.3-2.5,6.3-7.2v-11.6h3.6v21.5h-3.5v-3.2
			c-1.5,2.5-3.9,3.7-7.1,3.7c-3,0-5.3-1.1-6.5-2.9c-0.9-1.4-0.9-3.1-0.9-5.2c0-0.3,0-0.7,0-1v-12.9h3.7V234.3z"/>
		<path class="st0" d="M233.6,229.4c0-3.8-0.7-5.6-3.9-5.6c-3.5,0-5.5,2.2-5.5,6.2v12.7h-3.7v-13.2c0-3.8-0.7-5.6-3.9-5.6
			c-3.4,0-5.5,2.3-5.5,6.2v12.7h-3.6v-21.5h3.5v3c1.6-2.4,3.7-3.6,6.7-3.6c2.7,0,4.5,1.1,5.9,3.4c1.8-2.3,4-3.4,6.9-3.4
			c2.8,0,4.9,1.1,6,2.9c0.8,1.5,0.9,3.3,0.9,5.6c0,0.2,0,0.4,0,0.6v12.9h-3.6V229.4z"/>
		<path class="st0" d="M279.3,229.4c0-3.8-0.9-5.6-4.3-5.6c-4,0-6.4,2.3-6.4,6.6v12.2H265v-21.5h3.5v3.1c1.6-2.5,3.9-3.7,6.9-3.7
			c3.2,0,5.5,1,6.7,2.9c0.9,1.4,0.9,3.1,0.9,5.2c0,0.3,0,0.7,0,1v12.9h-3.7V229.4z"/>
		<path class="st1" d="M288.5,216h3.5v8.1c1.6-2.4,4-3.7,6.9-3.7c5.6,0,9.4,4.4,9.4,11.5c0,7-3.8,11.3-9.4,11.3c-3,0-5.2-1-7-3.4
			v2.7h-3.5V216z M298.2,240.1c3.9,0,6.4-3,6.4-7.9c0-5.5-2.4-8.5-6.4-8.5c-4.2,0-6.4,2.7-6.4,8.1
			C291.9,237.2,294.2,240.1,298.2,240.1z"/>
		<g>
			<path class="st1" d="M329.4,227.1c0-4.6-2.6-6.7-8.4-6.7c-4.5,0-7.5,1.9-8.3,5.1l3.3,1c0.4-1.9,2.1-2.9,4.9-2.9
				c3.2,0,4.8,1.1,4.8,3.3c0,1.4,0,1.9-1,2.3c-0.9,0.4-2.9,0.5-5.9,0.8c-4.9,0.6-7.4,2.8-7.4,6.7c0,4,2.5,6.5,7,6.5
				c2.9,0,5.4-1.2,7.6-3.5c0,0,0,2.9,0,2.9h3.4C329.4,242.6,329.4,233,329.4,227.1z M325.7,234.9c0,3-2.7,5.2-6.7,5.2
				c-2.5,0-3.9-1.2-3.9-3.3c0-2.2,1.1-3.2,3.7-3.6c2.5-0.4,4.9-0.5,6.8-1.5V234.9z"/>
		</g>
		<g>
			<path class="st1" d="M344.7,230.1l-3.5-0.8c-2.3-0.5-3.4-1.1-3.4-2.7c0-1.9,1.5-3,4.4-3c2.4,0,4.1,0.9,4.7,2.6l3.6-0.2
				c-0.6-3.3-3.7-5.4-8.3-5.4c-5.1,0-8.1,2.5-8.1,6.2c0,3.6,1.8,5,6.1,6l4,1c2.2,0.5,3.3,1.1,3.3,2.9c0,2.1-1.8,3.4-5,3.4
				c-2.9,0-4.7-1.2-5.3-3.4l-3.6,0.2c0.6,4.1,3.5,6.4,8.5,6.4c5.8,0,9-2.7,9-7.1C351.2,232.5,349.1,231.1,344.7,230.1z"/>
		</g>
		<g>
			<path class="st1" d="M369.9,235.9c-0.6,2.7-2.6,4.2-5.5,4.2c-3.8,0-6.1-2.5-6.2-7.1h15.5c0-0.5,0-1.1,0-1.6
				c0-7-3.6-10.9-9.7-10.9c-5.9,0-9.7,4.2-9.7,11.7c0,7,3.7,11.2,9.7,11.2c4.7,0,8.1-2.5,9.2-6.6L369.9,235.9z M364.2,223.7
				c3.7,0,5.8,2.2,5.8,6.3h-11.8C358.5,225.8,360.6,223.7,364.2,223.7z"/>
		</g>
		<g>
			<path class="st0" d="M259.4,227.1c0-4.6-2.6-6.7-8.4-6.7c-4.5,0-7.5,1.9-8.3,5.1l3.3,1c0.4-1.9,2.1-2.9,4.9-2.9
				c3.2,0,4.8,1.1,4.8,3.3c0,1.4,0,1.9-1,2.3c-0.9,0.4-2.9,0.5-5.9,0.8c-4.9,0.6-7.4,2.8-7.4,6.7c0,4,2.5,6.5,7,6.5
				c2.9,0,5.4-1.2,7.6-3.5c0,0,0,2.9,0,2.9h3.4C259.4,242.6,259.4,233.6,259.4,227.1z M255.7,234.9c0,3-2.7,5.2-6.7,5.2
				c-2.5,0-3.9-1.2-3.9-3.3c0-2.2,1.1-3.2,3.7-3.6c2.5-0.4,4.9-0.5,6.8-1.5V234.9z"/>
		</g>
	</g>
</g>
</svg>
